<svg width="480" height="480" fill="none" id="Layer_1" data-name="Layer 1" xmlns="http://www.w3.org/2000/svg" xmlns:xlink="http://www.w3.org/1999/xlink" viewBox="0 0 194.03 194"><defs><style>.cls-1{fill:url(#linear-gradient);}.cls-2{fill:#fff;}</style><linearGradient id="linear-gradient" x1="144.87" y1="-1532.12" x2="47.95" y2="-1629.04" gradientTransform="matrix(1, 0, 0, -1, 0.62, -1483.26)" gradientUnits="userSpaceOnUse"><stop offset="0" stop-color="#e44857"/><stop offset="0.47" stop-color="#c711e1"/><stop offset="1" stop-color="#7f52ff"/></linearGradient></defs><g id="Logotypes"><polygon class="cls-1" points="145.48 145.44 48.55 145.44 48.55 48.56 145.48 48.56 97.01 96.97 145.48 145.44"/></g><path id="path80319" class="cls-2" d="M81.61,116l11.17,6.44a1.3,1.3,0,0,0,1.79-.48,1.28,1.28,0,0,0-.48-1.77l-11.3-6.54a40.78,40.78,0,0,0,0-33.24l11.3-6.54a1.31,1.31,0,0,0-1.31-2.27L81.61,78A38.5,38.5,0,0,0,51.17,58.16v77.68A38.38,38.38,0,0,0,81.61,116ZM62.09,79.17a3.26,3.26,0,1,1,3.25,3.25A3.25,3.25,0,0,1,62.09,79.17Zm0,35.66a3.26,3.26,0,1,1,3.25,3.26A3.25,3.25,0,0,1,62.09,114.83Z"/></svg>