<?xml version="1.0"?>
<svg xmlns="http://www.w3.org/2000/svg" xmlns:xlink="http://www.w3.org/1999/xlink" xmlns:svgjs="http://svgjs.com/svgjs" version="1.1" width="512" height="512" x="0" y="0" viewBox="0 0 24 24" style="enable-background:new 0 0 512 512" xml:space="preserve" class=""><g><path xmlns="http://www.w3.org/2000/svg" d="m6.76 8.11-.33-1.97.13-.13-.41-.42c-.6-.61-.8-1.49-.54-2.29.01-.03.02-.05.03-.08l-.13-.02-.84-1.77c-.12-.26-.39-.43-.68-.43s-.56.17-.68.43l-.83 1.78-1.85.29c-.27.04-.5.24-.59.51-.09.26-.02.56.18.76l1.36 1.39-.32 1.97c-.04.29.08.57.31.73.13.09.28.14.43.14.13 0 .26-.03.37-.09l1.64-.92 1.65.9c.25.14.56.12.8-.04.23-.17.35-.45.3-.74z" fill="#33313b" data-original="#000000" style="" class=""/><path xmlns="http://www.w3.org/2000/svg" d="m23.96 3.98c-.09-.27-.32-.46-.6-.5l-1.85-.28-.84-1.77c-.12-.26-.39-.43-.68-.43s-.56.17-.68.43l-.83 1.78-.11.02c0 .01.01.02.01.03.27.8.08 1.68-.51 2.28l-.45.46.16.16-.32 1.97c-.04.29.08.57.31.73.13.09.28.14.43.14.13 0 .26-.03.37-.09l1.64-.92 1.65.9c.25.14.56.12.8-.04.23-.17.35-.45.3-.74l-.33-1.97 1.36-1.4c.19-.2.26-.49.17-.76z" fill="#33313b" data-original="#000000" style="" class=""/><path xmlns="http://www.w3.org/2000/svg" d="m9.391 10c-.151 0-.301-.045-.43-.136-.235-.164-.356-.449-.311-.732l.432-2.7-1.867-1.898c-.197-.201-.265-.495-.177-.762s.318-.462.596-.505l2.54-.396 1.135-2.437c.123-.264.386-.433.677-.434h.002c.29 0 .554.167.678.429l1.152 2.429 2.542.379c.278.042.509.235.6.501.09.266.023.561-.172.763l-1.854 1.911.45 2.696c.047.283-.071.569-.306.735-.234.167-.542.185-.794.046l-2.269-1.242-2.26 1.258c-.113.064-.238.095-.364.095z" fill="#33313b" data-original="#000000" style="" class=""/><circle xmlns="http://www.w3.org/2000/svg" cx="4" cy="15" r="2" fill="#33313b" data-original="#000000" style="" class=""/><path xmlns="http://www.w3.org/2000/svg" d="m6.67 18.4c-1.01.76-1.67 1.98-1.67 3.35v.25h-4.25c-.41 0-.75-.34-.75-.75v-.5c0-1.52 1.23-2.75 2.75-2.75h2.5c.52 0 1.01.15 1.42.4z" fill="#33313b" data-original="#000000" style="" class=""/><circle xmlns="http://www.w3.org/2000/svg" cx="20" cy="15" r="2" fill="#33313b" data-original="#000000" style="" class=""/><path xmlns="http://www.w3.org/2000/svg" d="m24 20.75v.5c0 .41-.34.75-.75.75h-4.25v-.25c0-1.37-.66-2.59-1.67-3.35.41-.25.9-.4 1.42-.4h2.5c1.52 0 2.75 1.23 2.75 2.75z" fill="#33313b" data-original="#000000" style="" class=""/><circle xmlns="http://www.w3.org/2000/svg" cx="12" cy="14.5" r="3" fill="#33313b" data-original="#000000" style="" class=""/><path xmlns="http://www.w3.org/2000/svg" d="m14.75 19h-5.5c-1.517 0-2.75 1.233-2.75 2.75v1.5c0 .414.336.75.75.75h9.5c.414 0 .75-.336.75-.75v-1.5c0-1.517-1.233-2.75-2.75-2.75z" fill="#33313b" data-original="#000000" style="" class=""/></g></svg>
