<?xml version="1.0"?>
<svg xmlns="http://www.w3.org/2000/svg" xmlns:xlink="http://www.w3.org/1999/xlink" xmlns:svgjs="http://svgjs.com/svgjs" version="1.1" width="512" height="512" x="0" y="0" viewBox="0 0 512 512" style="enable-background:new 0 0 512 512" xml:space="preserve" class=""><g><g xmlns="http://www.w3.org/2000/svg"><path d="m181 90h150c8.284 0 15-6.716 15-15v-30c0-24.813-20.187-45-45-45h-90c-24.813 0-45 20.187-45 45v30c0 8.284 6.716 15 15 15z" fill="#33313b" data-original="#000000" style="" class=""/><circle cx="166" cy="406" r="15" fill="#33313b" data-original="#000000" style="" class=""/><path d="m451 32h-76.151c1.871 10.656.86 15.384 1.151 43 0 24.813-20.187 45-45 45h-150c-24.813 0-45-20.187-45-45 .292-27.693-.721-32.339 1.151-43h-76.151c-8.284 0-15 6.716-15 15v450c0 8.284 6.716 15 15 15h390c8.284 0 15-6.716 15-15v-450c0-8.284-6.716-15-15-15zm-285 419c-24.813 0-45-20.187-45-45s20.187-45 45-45 45 20.187 45 45-20.187 45-45 45zm190.606-64.394-90 90c-5.858 5.859-15.356 5.858-21.213 0-5.858-5.858-5.858-15.355 0-21.213l77.062-77.062-164.775-109.85c-7.885-5.257-8.965-16.409-2.286-23.087l65.393-65.394h-9.787c-8.284 0-15-6.716-15-15s6.716-15 15-15h46c8.284 0 15 6.716 15 15v45c0 8.284-6.716 15-15 15s-15-6.716-15-15v-8.787l-52.456 52.456 164.776 109.85c7.885 5.257 8.965 16.409 2.286 23.087zm20-149.712c5.858 5.858 5.858 15.355 0 21.213-5.858 5.859-15.356 5.858-21.213 0l-10.144-10.144-10.144 10.144c-5.858 5.859-15.356 5.858-21.213 0-5.858-5.858-5.858-15.355 0-21.213l10.144-10.144-10.144-10.144c-5.858-5.858-5.858-15.355 0-21.213 5.857-5.858 15.355-5.858 21.213 0l10.144 10.144 10.144-10.144c5.857-5.858 15.355-5.858 21.213 0s5.858 15.355 0 21.213l-10.144 10.144z" fill="#33313b" data-original="#000000" style="" class=""/></g></g></svg>
